<?xml version="1.0" encoding="UTF-8" standalone="no"?>
<svg
   width="256"
   height="256"
   version="1.1"
   id="svg256"
   sodipodi:docname="favicon.svg"
   inkscape:version="1.2.2 (b0a8486541, 2022-12-01)"
   viewBox="0 0 1024 1024"
   inkscape:export-filename="logo-for-a-decent-cloud--decentralized-cloud--proj.png"
   inkscape:export-xdpi="96"
   inkscape:export-ydpi="96"
   xml:space="preserve"
   xmlns:inkscape="http://www.inkscape.org/namespaces/inkscape"
   xmlns:sodipodi="http://sodipodi.sourceforge.net/DTD/sodipodi-0.dtd"
   xmlns="http://www.w3.org/2000/svg"
   xmlns:svg="http://www.w3.org/2000/svg"><sodipodi:namedview
     id="namedview258"
     pagecolor="#ffffff"
     bordercolor="#666666"
     borderopacity="1.0"
     inkscape:showpageshadow="2"
     inkscape:pageopacity="0.0"
     inkscape:pagecheckerboard="0"
     inkscape:deskcolor="#d1d1d1"
     showgrid="false"
     inkscape:zoom="4"
     inkscape:cx="166.75"
     inkscape:cy="106"
     inkscape:window-width="3796"
     inkscape:window-height="1537"
     inkscape:window-x="0"
     inkscape:window-y="0"
     inkscape:window-maximized="1"
     inkscape:current-layer="svg256" /><defs
     id="defs182"><rect
       x="-32.757812"
       y="177.37793"
       width="316.33984"
       height="74.4375"
       id="rect367" /><rect
       x="12.4375"
       y="183.02051"
       width="160.77734"
       height="70.822266"
       id="rect312" /><linearGradient
       id="gradient_0"
       gradientUnits="userSpaceOnUse"
       x1="626.60754"
       y1="589.91522"
       x2="624.04993"
       y2="640.47217"
       gradientTransform="matrix(1.98053,0,0,1.98053,-506.45513,-579.99089)"><stop
         offset="0"
         stop-color="#69E8DD"
         id="stop177" /><stop
         offset="1"
         stop-color="#4FE0FB"
         id="stop179" /></linearGradient></defs><path
     fill="url(#gradient_0)"
     d="m 774.37134,650.24097 c 26.85212,-9e-5 54.74185,1.33092 81.4592,-0.83183 38.59655,-3.12528 69.74632,-23.35638 94.31877,-52.34936 1.17642,2.034 1.95676,2.55686 3.93333,3.71747 3.561,2.08945 16.81073,10.99192 18.42091,14.25981 -25.01608,33.70861 -65.96353,56.45697 -107.31304,62.36489 -31.41912,4.48788 -73.7985,2.07362 -106.39009,2.08154 -482.0648,-0.13108 -481.33389,-29.79553 15.57092,-29.24252 z"
     id="path184"
     style="fill:url(#gradient_0);stroke-width:1.98053"
     sodipodi:nodetypes="cccccccc" /><defs
     id="defs191"><linearGradient
       id="gradient_1"
       gradientUnits="userSpaceOnUse"
       x1="713.4259"
       y1="440.39105"
       x2="690.01111"
       y2="592.98553"
       gradientTransform="matrix(1.98053,0,0,1.98053,-506.45513,-579.99089)"><stop
         offset="0"
         stop-color="#B5E079"
         id="stop186" /><stop
         offset="1"
         stop-color="#6BF1DE"
         id="stop188" /></linearGradient></defs><path
     fill="url(#gradient_1)"
     d="m 803.13655,345.40772 c 55.59805,-11.89113 116.74853,5.79904 156.03902,47.24999 48.12913,48.15142 62.62143,126.16161 34.5457,188.23842 -5.4993,12.26223 -12.63622,23.79581 -21.21772,34.14093 -7.79986,-10.30189 -31.29973,-15.08916 -15.04245,-28.87419 22.45766,-34.11929 28.85245,-78.15551 15.88548,-117.01321 -16.63935,-52.27073 -64.96772,-92.76615 -118.97392,-101.19332 -28.44672,-4.40606 -56.69333,5.18495 -81.47422,18.48953 -19.95863,2.70155 -14.85206,-20.0913 -10.28483,-31.43669 5.73426,-21.7879 4.03715,-44.77207 9.77661,-66.46792 4.38156,-13.75853 25.66904,-22.43148 35.97507,-19.43596 4.35027,21.11658 8.40398,43.87821 -0.86965,64.33593 -1.4408,3.99328 -2.92777,7.96976 -4.35909,11.96649 z"
     id="path193"
     style="fill:url(#gradient_1);stroke-width:1.98053"
     sodipodi:nodetypes="cccccccccccscccccscscccccccccccssccccccccsccccc" /><defs
     id="defs200"><linearGradient
       id="gradient_2"
       gradientUnits="userSpaceOnUse"
       x1="407.62735"
       y1="451.17563"
       x2="376.97708"
       y2="656.32245"
       gradientTransform="matrix(1.98053,0,0,1.98053,-506.45513,-579.99089)"><stop
         offset="0"
         stop-color="#C0E9B2"
         id="stop195" /><stop
         offset="1"
         stop-color="#4DF"
         id="stop197" /></linearGradient></defs><path
     fill="#032e43"
     d="M 372.58323,170.15658 C 428.67211,71.350818 563.10073,29.934898 665.95922,77.357218 737.57355,104.38155 766.92458,178.27732 774.76921,248.93255 c 10.05888,39.79734 10.98975,86.41405 -15.70684,119.84052 0.20317,41.45352 53.26044,-10.44992 77.27427,0.25091 91.3822,-4.00879 167.87776,96.50518 137.18523,183.31252 -18.26165,60.5192 -79.90791,103.0497 -143.01489,98.20915 -82.02965,-0.0605 -164.08078,-1.37607 -246.10212,0.43407 13.24157,-11.82466 -21.05757,21.83171 -34.99407,13.1814 -30.55874,16.80391 -76.74438,3.7455 -72.11872,-22.59596 -17.62239,0.34011 -56.90387,-27.16463 -25.16713,-0.53172 4.61634,29.15108 -46.67715,-2.76413 -26.85624,7.50348 -86.72879,2.22143 -173.58296,1.25423 -260.3285,1.25749 C 86.129076,649.56306 22.282719,565.19474 45.523232,489.42167 59.86361,432.798 117.75924,392.04201 175.81491,396.83006 c 27.96513,-19.47218 -13.95069,-63.743 3.20382,-94.53902 14.92344,-44.65295 35.04911,-92.83117 74.59651,-121.58645 29.93648,-24.07176 69.95629,-25.85849 105.43009,-14.89037 4.56767,1.26771 9.08508,2.71674 13.5379,4.34236 z"
     id="path206"
     style="stroke-width:1.98053"
     sodipodi:nodetypes="cccsccccscccccccccc" /><path
     fill="url(#gradient_4)"
     d="M 348.10531,392.47158 C 391.46596,319.10181 488.32796,281.91003 568.89846,312.08967 644.77679,337.78956 699.44774,416.79228 691.69978,497.40763 680.59822,633.56129 547.04791,693.00918 432.86965,651.54948 312.35225,593.55513 307.23172,461.46632 348.10531,392.47158 Z"
     id="path234"
     style="fill:url(#gradient_4);fill-opacity:1;stroke-width:1.98053"
     sodipodi:nodetypes="ccccc" /><path
     fill="url(#gradient_2)"
     d="m 181.34922,363.37509 c 25.95524,49.22758 -46.91319,25.53414 -70.57522,46.69189 -65.420143,30.17919 -90.840264,120.51045 -49.627099,180.00352 27.134573,46.1423 82.959339,64.67885 134.120089,60.22732 176.918,-0.1943 353.85485,0.25782 530.7708,1.5193 50.97364,2.20662 102.99505,-0.17097 152.96413,11.01092 -22.16904,14.16079 -63.87468,9.48558 -93.69938,13.35468 -161.29831,6.6014 -322.8097,2.37713 -484.19798,3.3983 -54.0656,-1.10033 -108.4433,2.71339 -162.2223,-2.97397 C 63.534584,663.60161 6.1305737,590.3732 10.813694,514.14328 12.862087,442.13918 72.142122,378.12205 143.61488,369.62531 c 16.19342,-11.48928 -5.49339,-41.33988 7.04047,-78.89148 8.41216,-41.22091 34.6113,-78.6872 68.55268,-102.67464 35.80813,-7.09489 40.22117,10.68917 7.80506,35.70607 -38.55974,29.75821 -60.35777,91.32602 -45.66387,139.60983 z"
     id="path202"
     style="fill:url(#gradient_2);fill-opacity:1;stroke-width:1.98053"
     sodipodi:nodetypes="ssccccsscssccss" /><path
     fill="#76ecea"
     d="m 226.42212,459.97345 c 11.52902,-1.06527 23.70934,3.99291 30.14942,13.8141 9.38022,13.73351 6.3749,34.64661 -7.13894,44.59477 -4.83884,3.55568 -10.6391,5.86395 -16.58962,6.60439 -8.41236,0.34404 -17.27134,-1.61416 -23.82543,-7.15948 -10.04239,-7.94193 -14.155,-22.16333 -10.4244,-34.33364 2.58799,-9.31693 9.58296,-17.29081 18.65122,-20.75366 2.95781,-1.22461 6.05072,-2.09707 9.17775,-2.76648 z"
     id="path208"
     style="stroke-width:1.98053" /><path
     fill="#81ecb2"
     d="m 781.71118,462.83928 c 18.65482,-3.35324 39.03463,11.89053 38.24467,31.50289 1.04669,21.58519 -22.43421,42.18426 -43.53294,33.41216 -20.06749,-7.57152 -28.85675,-35.62592 -14.68006,-52.44824 4.9334,-6.30276 12.10503,-10.8762 19.96833,-12.46681 z"
     id="path210"
     style="stroke-width:1.98053" /><path
     fill="#fdd75b"
     d="M 372.58323,170.15658 C 412.96649,99.695768 494.6933,56.341688 575.35837,57.749258 c 41.14215,1.11548 83.06538,11.71787 117.75095,34.2139 63.31564,41.441672 86.78439,91.085772 107.52772,148.211652 7.24214,17.12278 15.36965,44.24053 -12.2774,40.06352 -12.91696,0.17947 -6.51507,-6.41051 -22.61616,-44.17956 C 744.31888,185.50772 714.12467,132.90946 661.91349,109.31537 597.8298,76.946218 517.09918,82.752578 458.49515,124.1803 c -23.082,15.782 -42.96034,36.13398 -58.55486,59.32108 20.44234,14.91134 43.14273,30.30865 54.36729,53.76497 7.59607,20.11012 -22.722,32.46608 -30.68603,10.44011 -31.59028,-47.69465 -97.16221,-69.78939 -151.05181,-49.97775 -16.76462,1.14283 -38.21891,27.65946 -50.64021,19.53165 -17.18363,-10.26953 -17.31925,-22.0993 5.19548,-34.78408 44.28722,-24.989 97.58973,-30.67721 145.45822,-12.3197 z"
     id="path225"
     style="stroke-width:1.98053"
     sodipodi:nodetypes="ccccccccccssscc" /><path
     fill="#fdd75b"
     d="m 299.68983,232.37097 c 1.93497,-0.26342 3.83827,-0.32679 5.78909,-0.25749 5.61282,0.19807 10.58594,2.43408 14.37073,6.66647 2.43408,2.72323 3.6402,5.96932 3.38671,9.63726 -1.15862,16.67209 -29.11578,15.80858 -43.64098,24.0357 -23.41779,13.2656 -20.12812,30.39718 -33.85519,43.01117 -1.34081,0.52485 -2.69747,0.93085 -4.09968,1.26161 -3.50752,0.82984 -9.6531,0.30698 -12.65559,-1.90527 -3.2144,-2.36872 -4.61266,-5.49003 -5.07411,-9.3996 -1.54482,-13.07348 7.78546,-28.75729 15.36098,-38.88177 14.96885,-20.00532 35.92087,-30.75762 60.41804,-34.16808 z"
     id="path212"
     style="stroke-width:1.98053" /><path
     fill="#fdd75b"
     d="m 566.68902,128.0822 c 47.38316,-2.28743 94.61938,18.18399 126.85293,52.6702 21.08113,22.0381 34.96944,50.28423 42.02832,79.79203 1.85843,9.69901 4.16085,22.86898 -5.57527,29.20477 -8.70879,6.43097 -22.43193,0.31215 -23.24231,-10.65988 -1.60214,-12.32723 -3.62492,-24.72922 -8.74244,-36.17726 -16.78129,-41.3687 -55.23734,-72.94288 -99.1232,-81.23225 -10.05169,-2.56225 -20.60606,-1.26536 -30.63787,-3.61937 -9.59518,-2.52032 -13.77965,-14.71738 -8.31713,-22.81471 1.73164,-2.82641 4.24455,-5.05026 6.75697,-7.16353 z m 60.48724,18.68911 c -442.62525,-186.605512 -221.31263,-93.302762 0,0 z"
     id="path214"
     style="stroke-width:1.98053"
     sodipodi:nodetypes="cccccccccccc" /><defs
     id="defs221"><linearGradient
       id="gradient_3"
       gradientUnits="userSpaceOnUse"
       x1="712.56903"
       y1="509.88977"
       x2="680.86432"
       y2="597.87006"
       gradientTransform="matrix(1.98053,0,0,1.98053,-506.45513,-579.99089)"><stop
         offset="0"
         stop-color="#93EAA3"
         id="stop216" /><stop
         offset="1"
         stop-color="#67EBC0"
         id="stop218" /></linearGradient></defs><path
     fill="url(#gradient_3)"
     d="m 846.44282,412.2922 c 16.38295,-0.68924 36.06941,6.53773 49.85786,15.05994 22.4493,13.87163 37.68156,37.93308 43.44489,63.45023 5.60293,24.81011 0.16043,51.11352 -13.5171,72.41214 -16.98701,26.44799 -42.02487,38.49358 -71.84768,45.13626 -1.00413,0.13469 -2.01024,0.28917 -3.02229,0.3466 -3.22826,0.18024 -6.19708,-0.97045 -8.47667,-3.24411 -3.54118,-3.53326 -7.93004,-8.90049 -7.36757,-14.27763 1.26754,-12.15056 22.44336,-13.09526 30.84675,-15.97694 6.15153,-2.11124 12.08322,-5.4524 17.29993,-9.32632 15.63628,-11.6158 25.62607,-27.69375 28.22255,-47.07323 3.8957,-29.05437 -11.19791,-58.36027 -38.02023,-70.69302 -9.22531,-4.24033 -30.22289,-4.92163 -35.70103,-12.84374 -2.16473,-3.12924 -3.20451,-7.12794 -2.25781,-10.85925 1.48144,-5.83266 5.65244,-9.10053 10.5384,-12.11093 z"
     id="path223"
     style="fill:url(#gradient_3);stroke-width:1.98053" /><defs
     id="defs232"><linearGradient
       id="gradient_4"
       gradientUnits="userSpaceOnUse"
       x1="520.57867"
       y1="446.31296"
       x2="508.74954"
       y2="598.79993"
       gradientTransform="matrix(1.98053,0,0,1.98053,-506.45513,-579.99089)"><stop
         offset="0"
         stop-color="#AFE8AC"
         id="stop227" /><stop
         offset="1"
         stop-color="#63E5FE"
         id="stop229" /></linearGradient></defs><path
     fill="#032e43"
     d="m 553.93639,462.79569 1.50125,0.23173 c 3.37481,6.9477 0.58029,34.76028 -0.53673,43.19337 l -19.34186,-6.77341 c -0.82191,-0.2634 -2.58261,-0.79023 -3.29757,-1.19426 -3.91155,-2.20433 -0.89124,-12.96058 -1.2933,-17.03057 -0.29113,-2.94505 -1.53095,-6.07824 -2.44595,-8.88862 z"
     id="path236"
     style="stroke-width:1.98053" /><path
     fill="#032e43"
     d="m 459.1819,461.78761 q 14.28754,4.41262 28.06808,10.21756 c -1.19031,7.60919 0.85756,18.94376 -1.832,25.63202 l -3.8244,1.3824 -23.12665,8.28457 c -0.62783,-15.2798 -0.31688,-30.2724 0.71497,-45.51655 z"
     id="path238"
     style="stroke-width:1.98053" /><path
     fill="#032e43"
     d="m 530.99195,329.7338 c 38.4809,4.88325 74.62141,25.40342 98.61316,55.87497 4.69039,5.72721 9.21061,11.5963 14.08494,17.17094 -21.98161,8.904 -44.28874,16.97806 -66.68841,24.76652 -6.24766,-25.51322 -13.6483,-51.29626 -28.14809,-73.50576 -5.39092,-8.49797 -11.46386,-16.54502 -17.8616,-24.30667 z"
     id="path240"
     style="stroke-width:1.98053" /><path
     fill="#032e43"
     d="m 482.60365,330.42501 1.1685,-0.0237 c 0.16835,0.33868 0.61002,0.6516 0.50703,1.01799 -0.5605,1.99242 -18.01688,22.5008 -20.88865,27.0085 -13.65576,21.44121 -20.31033,46.21368 -25.06361,70.90691 -14.44202,-6.66843 -29.7119,-11.75839 -44.66887,-17.13355 q -10.91272,-3.81451 -21.70858,-7.94391 c 2.9787,-4.56512 5.95545,-9.16986 9.17778,-13.56663 24.01985,-32.77183 61.52911,-54.25859 101.4764,-60.26554 z"
     id="path242"
     style="stroke-width:1.98053" /><path
     fill="#032e43"
     d="m 371.30382,566.77947 q 33.39569,-14.34696 67.45289,-27.04414 c 8.4925,37.4538 22.03338,70.28108 43.75781,102.02897 -13.14477,0.65952 -33.14417,-8.80741 -45.58981,-13.95283 -25.13689,-14.02809 -52.1315,-34.87714 -65.62089,-61.032 z"
     id="path244"
     style="stroke-width:1.98053" /><path
     fill="#032e43"
     d="m 575.60536,537.36661 c 23.02566,7.60722 44.52628,19.80332 67.10829,28.65629 -16.1334,25.46565 -36.66755,42.87846 -62.50354,57.75819 -16.57507,8.54599 -32.32424,13.7726 -50.39856,17.99708 23.19993,-34.47905 34.79989,-64.51577 45.79381,-104.41156 z"
     id="path246"
     style="stroke-width:1.98053" /><path
     fill="#032e43"
     d="m 506.45715,517.27018 c 6.45256,-0.92491 36.92698,11.80792 44.56786,14.66185 -9.15202,35.30691 -23.10288,65.85461 -43.98163,95.77249 -1.09721,1.09326 -0.36045,0.65753 -2.44397,0.79617 -19.78747,-21.99379 -35.9585,-67.47666 -40.43252,-96.42406 z"
     id="path248"
     style="stroke-width:1.98053" /><path
     fill="#032e43"
     d="m 507.69102,345.46911 c 0.89718,0.35055 0.49513,0.15845 1.78049,1.00611 24.63978,16.23639 37.23596,62.47384 42.2051,89.72791 -14.83219,4.73545 -29.32967,9.85908 -43.63108,16.04625 -14.86189,-4.69979 -30.54571,-10.71466 -44.65302,-17.3237 8.07066,-35.61784 17.77327,-63.22246 44.29851,-89.45657 z"
     id="path250"
     style="stroke-width:1.98053" /><path
     fill="#032e43"
     d="m 359.28001,426.68669 c 22.34236,5.52171 52.11764,18.34168 74.25997,26.86787 -1.44776,20.8213 -1.44776,40.02254 0.0634,60.82207 -8.79355,3.00247 -17.43659,6.42285 -26.10339,9.7739 q -23.89113,10.10071 -47.99813,19.67658 c -15.81454,-35.95257 -13.31312,-80.77196 -0.22182,-117.14042 z"
     id="path252"
     style="stroke-width:1.98053" /><path
     fill="#032e43"
     d="m 654.10565,426.16976 c 1.32497,0.87739 2.07163,2.30337 2.6955,3.71747 15.8482,35.94263 12.15055,78.01899 -1.323,114.01712 -14.54896,-5.26228 -28.89196,-12.12877 -43.19138,-18.08818 -10.75825,-4.37103 -21.46103,-8.93021 -32.54011,-12.43576 2.67371,-19.83303 3.42631,-40.10374 1.01799,-59.99619 24.49321,-8.85495 49.29736,-17.2009 73.341,-27.21446 z"
     id="path254"
     style="stroke-width:1.98053" /><path
     fill="#fdd75b"
     d="m 566.68902,128.0822 c 47.38316,-2.28743 94.61938,18.18399 126.85293,52.6702 21.08113,22.0381 34.96944,50.28423 42.02832,79.79203 1.85843,9.69901 4.16085,22.86898 -5.57527,29.20477 -8.70879,6.43097 -22.43193,0.31215 -23.24231,-10.65988 -1.60214,-12.32723 -3.62492,-24.72922 -8.74244,-36.17726 -16.78129,-41.3687 -55.23734,-72.94288 -99.1232,-81.23225 -10.05169,-2.56225 -20.60606,-1.26536 -30.63787,-3.61937 -9.59518,-2.52032 -13.77965,-14.71738 -8.31713,-22.81471 1.73164,-2.82641 4.24455,-5.05026 6.75697,-7.16353 z m 60.48724,18.68911 c -442.62525,-186.605512 -221.31263,-93.302762 0,0 z"
     id="path406"
     style="stroke-width:1.98053"
     sodipodi:nodetypes="cccccccccccc" /><text
     xml:space="preserve"
     style="font-style:normal;font-weight:normal;font-size:459.597px;line-height:1.25;font-family:sans-serif;fill:#53def5;fill-opacity:1;stroke:#032e43;stroke-width:11.4899;stroke-opacity:1"
     x="178.79726"
     y="1104.986"
     id="text258"
     transform="scale(1.0925504,0.91528958)"><tspan
       sodipodi:role="line"
       id="tspan256"
       style="font-style:normal;font-variant:normal;font-weight:bold;font-stretch:normal;font-family:'Clear Sans Medium';-inkscape-font-specification:'Clear Sans Medium,  Bold';fill:#53def5;fill-opacity:1;stroke:#032e43;stroke-width:11.4899;stroke-opacity:1"
       x="178.79726"
       y="1104.986">DC</tspan></text><text
     xml:space="preserve"
     transform="scale(4)"
     id="text310"
     style="font-style:normal;font-weight:normal;font-size:40px;line-height:1.25;font-family:sans-serif;white-space:pre;shape-inside:url(#rect312);display:inline;fill:#000000;fill-opacity:1;stroke:none" /><text
     xml:space="preserve"
     transform="scale(4)"
     id="text365"
     style="font-style:normal;font-weight:normal;font-size:40px;line-height:1.25;font-family:sans-serif;white-space:pre;shape-inside:url(#rect367);display:inline;fill:#000000;fill-opacity:1;stroke:none" /></svg>
